PathFileType	4	(X/Y/Z)	8_coords_data.trc
DataRate	CameraRate	NumFrames	NumMarkers	Units	OrigDataRate	OrigDataStartFrame	OrigNumFrames
30.0	30.0	6	21	m	30.0	34	55
Frame#	Time	THUMB_TIP	THUMB_IP	THUMB_MCP	THUMB_CMC	INDEX_TIP	INDEX_DIP	INDEX_PIP	INDEX_MCP	MIDDLE_TIP	MIDDLE_DIP	MIDDLE_PIP	MIDDLE_MCP	RING_TIP	RING_DIP	RING_PIP	RING_MCP	PINKY_TIP	PINKY_DIP	PINKY_PIP	PINKY_MCP	WRIST
X1	Y1	Z1	X2	Y2	Z2	X3	Y3	Z3	X4	Y4	Z4	X5	Y5	Z5	X6	Y6	Z6	X7	Y7	Z7	X8	Y8	Z8	X9	Y9	Z9	X10	Y10	Z10	X11	Y11	Z11	X12	Y12	Z12	X13	Y13	Z13	X14	Y14	Z14	X15	Y15	Z15	X16	Y16	Z16	X17	Y17	Z17	X18	Y18	Z18	X19	Y19	Z19	X20	Y20	Z20	X21	Y21	Z21
32	1.0999999999999952	0.5175326521197867	-0.007818320766056153	-0.1511941753302461	0.4963239926910201	-0.013305465903441616	-0.14425991232139923	0.4758325067593019	-0.02146623223951205	-0.12229810690567211	0.47104327435490323	-0.029017772264101183	-0.0785953896419403	0.569966304852875	0.008008448885608366	-0.1599091798346664	0.5552841084069159	0.015835223157805722	-0.1527555295766279	0.5341954946044403	0.023821452696191736	-0.14164245895459693	0.5000504166236259	0.012879983042124676	-0.1186634688659694	0.5911066452178955	0.017769480430415263	-0.14306077083998053	0.5756757426161617	0.022710371153527698	-0.13496911811893086	0.5508784256450927	0.029851596189055307	-0.1214226969668965	0.5130508924531347	0.01817294100765554	-0.10071437335620115	0.5964129564310259	0.013738078932768238	-0.11909026213010876	0.5819183177316133	0.01988920260079685	-0.11031135977308759	0.560836685933737	0.026640670524138432	-0.09890248337710256	0.5250632218988758	0.014828051566760037	-0.08422453603034186	0.5971388126852561	0.003450584657763045	-0.0913691208163972	0.5824256641614314	0.008266520921516696	-0.08406638034316855	0.5633184093245767	0.012107139551854051	-0.07625776458006417	0.529759240623806	0.0034291341580334755	-0.06628992281275903	0.4622830810018609	-0.023011742144276925	-0.051989820119430985
33	1.1333333333333284	0.5139482669737715	-0.00700670048660923	-0.15437910556316703	0.49359478288121106	-0.012688759477009537	-0.14535414623231696	0.4742939206470831	-0.021076394437886448	-0.12242067076996538	0.47045193588759426	-0.029234313220645847	-0.07873340129427303	0.570640814201395	0.008946630402730138	-0.162484997197414	0.5555271293808993	0.015134038958939167	-0.1546560441061462	0.5343135256222954	0.02165874372670651	-0.14284837387589255	0.5003914521176356	0.011570466241631938	-0.11915964912067195	0.5921299213747341	0.018643910829576837	-0.14452673841299574	0.576379843775627	0.022127176603202403	-0.13629254657818907	0.5513680437753703	0.027843150149705953	-0.12246695229935861	0.5135994441670264	0.01669421928175263	-0.10136287342521194	0.5975767372360862	0.014252046997653145	-0.12019426572022784	0.5826928537868508	0.01928381759004505	-0.11135394343113009	0.5613458101860096	0.024948400416164085	-0.09984758823455164	0.5256460411213153	0.01321813360713342	-0.08492618872524121	0.598097838051244	0.003644942428890241	-0.09201110753500485	0.5830431350648279	0.007430753440904603	-0.08479837206417906	0.5637552883862895	0.010424003430896223	-0.07706329326673883	0.5301949173969259	0.0018878911829814937	-0.0669776729215496	0.4622830810018609	-0.023011742144276925	-0.051989820119430985
34	1.1666666666666616	0.5097729117083422	-0.006207822120394169	-0.1576771985022033	0.4906284834418577	-0.01212170414036251	-0.14642922687157872	0.47267041540027877	-0.020727074669132373	-0.12250694875521612	0.46983911255573263	-0.029473953424624777	-0.0788564523520916	0.5709661892576547	0.010449009591270375	-0.16512429129138595	0.5555548943763916	0.014751416030221565	-0.1566401125499387	0.5342979153181504	0.01958711361188581	-0.1441194614799592	0.5007120846278679	0.010115554235493152	-0.11970803723180945	0.5928987262645119	0.01993375287450605	-0.14605039728508257	0.576934167446554	0.02180802530806203	-0.1377065393888352	0.551761391984385	0.025898589252329463	-0.12359951234026512	0.5141329657869289	0.015060130916649817	-0.10208725342102709	0.5985780466273303	0.015104701134533216	-0.12141191099188897	0.5833563308451852	0.01887366477789043	-0.11251841439591193	0.5617717465075839	0.023276402104130844	-0.10090369950448641	0.5262143120303447	0.011431088358180297	-0.08573536968024914	0.5989282665958182	0.003991037340017156	-0.09276104588857598	0.5835853070496363	0.006658027733591365	-0.08565606491711603	0.5641438928820663	0.00870176924220023	-0.07799665535690842	0.5306146521571756	0.00016737146491074828	-0.06780658558328445	0.4622830810018609	-0.023011742144276925	-0.051989820119430985
35	1.1999999999999948	0.5051187104993047	-0.005509865833213001	-0.16088340560226838	0.48754123331948385	-0.01165279215386672	-0.1474187573628266	0.47102618811388797	-0.02045234327086376	-0.12254625885550974	0.4692295399223454	-0.029746090955510507	-0.0789539624116431	0.5708607955401317	0.012375974646863686	-0.16768894838722576	0.555349070212086	0.014668681459298005	-0.15862639505941123	0.5341716684589258	0.01766096651023752	-0.1454137602669418	0.5010220701523725	0.008522468864259558	-0.12028950730513965	0.5933722385653627	0.02143117803093919	-0.14753847800690245	0.5773299140110502	0.021661146055210412	-0.1391366366847926	0.5520805096614199	0.024012035488345407	-0.1247717333136577	0.5146507727793389	0.013283065919428072	-0.10286164591247576	0.5994090279666109	0.016109833766213444	-0.12262068873635656	0.5839255585698853	0.01853185435587723	-0.11371024589080114	0.5621510603538735	0.021549239358058858	-0.10200782758561683	0.5267714786653648	0.00946152834617997	-0.08661648989068427	0.5996278896823043	0.0043717520516690644	-0.09345308929423185	0.5840610740619068	0.005897115946242204	-0.08649985145638406	0.5644975324138803	0.006936002314592793	-0.07894997911974178	0.5310100963052856	-0.0017315963320928551	-0.06873490165685592	0.4622830810018609	-0.023011742144276925	-0.051989820119430985
36	1.233333333333328	0.5002876472821532	-0.004952603106731068	-0.16375115961692377	0.48455018412676476	-0.011310897008602772	-0.14826231356273978	0.4694831040633294	-0.020267692850979735	-0.12254113733380328	0.4686560038430915	-0.03003204036503293	-0.07902259619499102	0.5703126899994221	0.014692242137410605	-0.16999712947059953	0.5549084990179577	0.014963191441384027	-0.16047675727822985	0.5339438641952179	0.01604535339003521	-0.14664480711688027	0.5013142219396806	0.0068924675232567845	-0.12085397113614116	0.5935516135569621	0.023153727134803348	-0.1488162897884313	0.5775579371000541	0.02178824364652099	-0.14042952830172056	0.5523207592283251	0.022353296239250198	-0.12586329616577802	0.5151341419462353	0.011467082411328655	-0.10361933598310924	0.6000225189049132	0.017186680577422675	-0.12369253785409962	0.5843712970729507	0.01826492410740188	-0.11481128534914531	0.5624679679363979	0.01985137543079718	-0.10306789044246112	0.5272868433776989	0.007413522482918489	-0.08750160884304714	0.600165203941466	0.004708039815919163	-0.09400817483181112	0.5844487010339721	0.005140524998061835	-0.08724027316837352	0.5647990020186514	0.005191208760540689	-0.07984441089521521	0.5313517582603332	-0.0037102268009509	-0.06969897936588815	0.462283081001861	-0.023011742144276925	-0.051989820119430985
37	1.2666666666666608	0.4955543846164664	-0.0045087563773440476	-0.16612355613608182	0.48179135618821434	-0.01107247085313745	-0.14893353866187936	0.4680975356692165	-0.020165933044187456	-0.12250234071374594	0.46815526568781884	-0.03030892315823097	-0.07906265357408793	0.5693422361271566	0.017297686883646524	-0.17192460474494564	0.5542265082248531	0.01566788772010186	-0.16208293188561768	0.5335935809376556	0.014891553350591558	-0.14774105441061652	0.5015381705932984	0.0053476640089372696	-0.12137818396961303	0.5934049276674217	0.024983574100445827	-0.14987508519790693	0.5775671001812636	0.0221822398223247	-0.14154947730533146	0.5524294557226327	0.021048064979445114	-0.1268449872258608	0.515533910722933	0.009737756079092774	-0.10432957932918385	0.6003545048333192	0.018339178455657357	-0.12459597222090019	0.5846300579612959	0.01815247788242036	-0.11578081972846588	0.5626744711527825	0.01833951288335456	-0.1040293430211639	0.5277117634428903	0.0054377971317909335	-0.0883489210160488	0.6004990706171247	0.005029038816987352	-0.09445280847736426	0.5847021550893885	0.004480003945745437	-0.08788348427165443	0.565008397161007	0.0036059179810724595	-0.08065825822780825	0.5316120478707617	-0.005635466756899188	-0.07065005593125562	0.462283081001861	-0.023011742144276925	-0.051989820119430985
